HIERARCHY
ROOT Hips
{
	OFFSET 0.000000 0.000000 0.000000
	CHANNELS 6 Xposition Yposition Zposition Xrotation Yrotation Zrotation
	JOINT LeftUpLeg_virtual
	{
		OFFSET 0.000000 0.000000 0.000000
		CHANNELS 3 Xrotation Yrotation Zrotation
		JOINT LeftUpLeg
		{
			OFFSET 13.026900 -6.336304 -1.092800
			CHANNELS 3 Xrotation Yrotation Zrotation
			JOINT LeftLeg
			{
				OFFSET 0.524474 -46.096886 9.782700
				CHANNELS 3 Xrotation Yrotation Zrotation
				JOINT LeftFoot
				{
					OFFSET -0.524474 -53.427422 -12.948200
					CHANNELS 3 Xrotation Yrotation Zrotation
					JOINT LeftToeBase
					{
						OFFSET 0.192200 -14.009700 16.364100
						CHANNELS 3 Xrotation Yrotation Zrotation
						JOINT LeftToe_End
						{
							OFFSET -1.784700 -0.561700 9.474800
							CHANNELS 3 Xrotation Yrotation Zrotation
							End Site
							{
								OFFSET 0 0 0
							}
						}
					}
				}
			}
		}
	}
	JOINT RightUpLeg_virtual
	{
		OFFSET 0.000000 0.000000 0.000000
		CHANNELS 3 Xrotation Yrotation Zrotation
		JOINT RightUpLeg
		{
			OFFSET -12.883000 -6.336304 -1.092800
			CHANNELS 3 Xrotation Yrotation Zrotation
			JOINT RightLeg
			{
				OFFSET -0.524587 -46.096825 9.782800
				CHANNELS 3 Xrotation Yrotation Zrotation
				JOINT RightFoot
				{
					OFFSET 0.524587 -53.427383 -12.948300
					CHANNELS 3 Xrotation Yrotation Zrotation
					JOINT RightToeBase
					{
						OFFSET -0.192200 -14.009700 16.364100
						CHANNELS 3 Xrotation Yrotation Zrotation
						JOINT RightToe_End
						{
							OFFSET 1.784700 -0.561700 9.474800
							CHANNELS 3 Xrotation Yrotation Zrotation
							End Site
							{
								OFFSET 0 0 0
							}
						}
					}
				}
			}
		}
	}
	JOINT Spine_virtual
	{
		OFFSET 0.000000 0.000000 0.000000
		CHANNELS 3 Xrotation Yrotation Zrotation
		JOINT Spine
		{
			OFFSET 0.072000 7.257294 -0.789700
			CHANNELS 3 Xrotation Yrotation Zrotation
			JOINT Spine1
			{
				OFFSET 0.000000 12.508769 -0.658067
				CHANNELS 3 Xrotation Yrotation Zrotation
				JOINT Spine1_split
				{
					OFFSET 0.000000 12.508769 -0.658067
					CHANNELS 3 Xrotation Yrotation Zrotation
					JOINT Spine2
					{
						OFFSET 0.000000 12.508769 -0.658067
						CHANNELS 3 Xrotation Yrotation Zrotation
						JOINT Neck_virtual
						{
							OFFSET 0.000000 0.000000 0.000000
							CHANNELS 3 Xrotation Yrotation Zrotation
							JOINT Neck
							{
								OFFSET 0.000000 14.033295 7.520400
								CHANNELS 3 Xrotation Yrotation Zrotation
								JOINT Head
								{
									OFFSET 0.000000 8.198502 5.703100
									CHANNELS 3 Xrotation Yrotation Zrotation
									JOINT HeadTop_End
									{
										OFFSET 0.000000 17.760803 13.332701
										CHANNELS 3 Xrotation Yrotation Zrotation
										End Site
										{
											OFFSET 0 0 0
										}
									}
								}
							}
						}
						JOINT LeftShoulder_virtual
						{
							OFFSET 0.000000 0.000000 0.000000
							CHANNELS 3 Xrotation Yrotation Zrotation
							JOINT LeftShoulder
							{
								OFFSET 6.292450 5.785301 -0.669000
								CHANNELS 3 Xrotation Yrotation Zrotation
								JOINT LeftShoulder_split
								{
									OFFSET 6.292450 5.785301 -0.669000
									CHANNELS 3 Xrotation Yrotation Zrotation
									JOINT LeftArm
									{
										OFFSET 13.907140 -6.093903 1.965100
										CHANNELS 3 Xrotation Yrotation Zrotation
										JOINT LeftForeArm
										{
											OFFSET 34.140198 0.000000 0.000000
											CHANNELS 3 Xrotation Yrotation Zrotation
											JOINT LeftHand
											{
												OFFSET 40.960209 0.000000 0.000000
												CHANNELS 3 Xrotation Yrotation Zrotation
												End Site
												{
													OFFSET 0 0 0
												}
											}
										}
									}
								}
							}
						}
						JOINT RightShoulder_virtual
						{
							OFFSET 0.000000 0.000000 0.000000
							CHANNELS 3 Xrotation Yrotation Zrotation
							JOINT RightShoulder
							{
								OFFSET -6.292450 5.785301 -0.669000
								CHANNELS 3 Xrotation Yrotation Zrotation
								JOINT RightShoulder_split
								{
									OFFSET -6.292450 5.785301 -0.669000
									CHANNELS 3 Xrotation Yrotation Zrotation
									JOINT RightArm
									{
										OFFSET -13.907140 -6.093903 1.965100
										CHANNELS 3 Xrotation Yrotation Zrotation
										JOINT RightForeArm
										{
											OFFSET -34.140198 0.000000 0.000000
											CHANNELS 3 Xrotation Yrotation Zrotation
											JOINT RightHand
											{
												OFFSET -40.960209 0.000000 0.000000
												CHANNELS 3 Xrotation Yrotation Zrotation
												End Site
												{
													OFFSET 0 0 0
												}
											}
										}
									}
								}
							}
						}
					}
				}
			}
		}
	}
}
MOTION
Frames: 7
Frame Time: 0.03333333
2.454505 41.672340 -36.556797 0.000000 0.000000 0.000000 39.883107 -3.826033 6.333201 -63.571405 -34.973369 21.351665 126.439902 -15.162484 -9.113270 24.667643 10.012461 -17.970084 -0.061617 3.550359 19.241669 0.000000 0.000000 0.000000 39.890542 0.491971 3.899870 -43.472798 29.041377 -42.667311 122.021439 17.930003 6.936584 12.715422 14.543435 13.705915 6.325389 10.759681 6.921316 0.000000 0.000000 0.000000 36.421560 1.338835 2.999247 22.687662 4.649764 -7.000485 17.469995 1.832926 -1.065158 -0.752238 -0.075516 1.732341 0.000000 0.000000 0.000000 18.627512 2.234839 -1.325289 4.567187 -1.439993 3.043576 -3.721958 -6.865987 4.902453 0.000000 0.000000 0.000000 16.893202 1.841177 -1.563989 1.080693 -34.600891 -5.357524 0.911329 -2.708787 -0.919849 -59.324236 -42.921844 -53.559249 1.773704 -55.910399 2.454012 0.000000 0.000000 0.000000 16.151598 1.717849 -1.060113 -1.210457 10.723260 4.299599 -0.770464 -5.140089 -1.998997 -46.141193 18.175576 49.453476 -2.927188 67.959699 1.658579 0.000000 0.000000 0.000000 
2.149965 40.907734 -37.281673 0.000000 0.000000 0.000000 38.039543 -4.742243 5.766571 -60.949801 -38.054611 24.534224 126.105086 -17.363792 -9.610278 26.224592 8.823527 -17.870314 -0.415489 3.447810 19.514016 0.000000 0.000000 0.000000 37.846672 0.573540 3.177992 -43.442814 31.795343 -42.014423 122.688871 18.145101 7.265423 14.171179 14.079556 14.386812 5.929226 10.883081 6.968652 0.000000 0.000000 0.000000 34.363515 -0.023570 3.057470 22.205722 4.319862 -7.486489 18.670725 1.766622 -1.536085 -0.506967 -0.288365 2.015277 0.000000 0.000000 0.000000 19.735828 2.232914 -1.757625 4.359740 -1.232538 2.508352 -2.019353 -6.450294 5.655946 0.000000 0.000000 0.000000 18.109500 1.817640 -1.969648 0.729806 -31.911856 -7.200776 0.616193 -3.776275 -0.445878 -59.688647 -43.317893 -52.568647 2.044928 -55.855279 3.139034 0.000000 0.000000 0.000000 17.277607 1.653766 -1.472342 -1.112619 9.981418 4.340853 -0.699501 -4.987011 -1.742105 -48.592616 18.935016 51.666252 -2.519177 68.523750 1.270058 0.000000 0.000000 0.000000 
1.908906 40.302307 -38.260143 0.000000 0.000000 0.000000 36.155074 -5.626928 5.113163 -57.736067 -40.782161 27.749481 125.866603 -19.178290 -9.968181 28.004279 7.707785 -17.926514 -0.596728 3.348729 19.770927 0.000000 0.000000 0.000000 35.738934 0.332332 2.512917 -43.460039 34.224060 -40.500071 123.231844 18.176534 7.343887 15.439260 13.441366 15.146925 5.725903 11.035836 6.995363 0.000000 0.000000 0.000000 32.196853 -1.647238 3.107995 21.738945 3.966024 -7.916588 19.500571 1.648116 -1.989212 -0.594302 -0.508756 2.180886 0.000000 0.000000 0.000000 20.457798 2.177294 -2.180178 4.520779 -0.960291 1.935142 0.005223 -5.985080 6.523426 0.000000 0.000000 0.000000 18.944004 1.737181 -2.328650 0.452989 -28.573586 -9.122868 0.506391 -4.536413 -0.090965 -59.329195 -42.672522 -51.801958 2.378764 -57.586998 3.920425 0.000000 0.000000 0.000000 17.983376 1.501084 -1.873058 -0.945624 9.388008 4.459523 -0.718101 -5.065809 -1.431087 -51.000551 20.121266 55.284200 -2.312510 68.906090 1.231179 0.000000 0.000000 0.000000 
1.763674 39.855381 -39.265759 0.000000 0.000000 0.000000 34.384501 -6.515201 4.564168 -54.048670 -42.694512 30.602813 125.639936 -20.326498 -10.347602 29.006929 7.210259 -17.754754 -0.255360 3.339650 19.890168 0.000000 0.000000 0.000000 33.655129 -0.331516 2.046269 -43.454449 36.089295 -38.371719 123.693333 18.043608 7.255033 16.315107 12.633256 15.852668 5.928393 11.223784 6.989053 0.000000 0.000000 0.000000 30.073330 -3.416742 3.176835 21.371433 3.588364 -8.291557 20.019452 1.470985 -2.320138 -0.757530 -0.868893 2.319700 0.000000 0.000000 0.000000 20.869592 2.044209 -2.501458 4.977862 -0.647972 1.432212 2.118075 -5.529532 7.335005 0.000000 0.000000 0.000000 19.464277 1.580221 -2.555803 0.293190 -25.082632 -10.836672 0.619197 -4.814378 0.187038 -58.270461 -41.158396 -51.493496 2.584587 -60.558909 4.533258 0.000000 0.000000 0.000000 18.348403 1.283205 -2.161259 -0.745269 8.940468 4.576173 -0.942692 -5.296019 -1.129473 -53.202703 21.515504 59.817376 -2.537268 68.521100 1.712193 0.000000 0.000000 0.000000 
1.686975 39.577507 -40.407505 0.000000 0.000000 0.000000 32.737916 -7.438397 4.216368 -50.093062 -43.400398 32.809169 125.276639 -20.745303 -10.664554 28.600087 7.351229 -17.350388 0.158603 3.352239 19.942009 0.000000 0.000000 0.000000 31.673479 -1.255973 1.813937 -43.428477 37.282745 -35.899177 124.107898 17.786943 7.056122 16.778047 11.740404 16.453147 6.279080 11.417788 6.963973 0.000000 0.000000 0.000000 28.138697 -5.149546 3.194870 21.181282 3.223916 -8.608961 20.299221 1.251624 -2.494613 -1.295704 -1.280656 2.597973 0.000000 0.000000 0.000000 21.055259 1.853684 -2.686012 5.569621 -0.323793 1.106206 4.129276 -5.083713 7.972550 0.000000 0.000000 0.000000 19.757231 1.353212 -2.642012 0.240576 -21.994278 -12.090750 0.762162 -4.522224 0.429345 -57.068129 -39.078750 -51.886772 2.474060 -63.387946 4.758183 0.000000 0.000000 0.000000 18.491009 1.049696 -2.305408 -0.537593 8.726350 4.530315 -1.387509 -5.643578 -0.722032 -55.000969 23.132241 64.416122 -3.110724 66.794011 2.508905 0.000000 0.000000 0.000000 
1.738029 39.415012 -41.481915 0.000000 0.000000 0.000000 31.304505 -8.422591 4.114103 -46.595807 -43.070326 33.862674 125.063810 -20.559242 -10.581369 27.052074 7.755826 -17.069088 0.036069 3.266293 20.066184 0.000000 0.000000 0.000000 29.933185 -2.315435 1.788695 -43.455805 37.827900 -33.394028 124.539279 17.470943 6.769503 16.885732 10.913645 16.981764 6.508165 11.594957 6.933087 0.000000 0.000000 0.000000 26.508137 -6.611629 3.139931 21.193744 2.901520 -8.851416 20.391789 1.015180 -2.514305 -1.398277 -1.703335 2.844980 0.000000 0.000000 0.000000 21.045777 1.627107 -2.743513 6.109088 -0.006577 1.009549 5.864803 -4.760302 8.400243 0.000000 0.000000 0.000000 19.878243 1.070393 -2.619434 0.232078 -19.739084 -12.792713 0.904633 -3.823777 0.557763 -55.828863 -36.875713 -52.841588 1.770306 -64.960509 4.295792 0.000000 0.000000 0.000000 18.458561 0.830641 -2.313026 -0.348055 8.706765 4.295815 -1.911141 -5.976223 -0.334881 -56.282091 25.163926 68.547874 -3.676401 63.438162 3.214601 0.000000 0.000000 0.000000 
1.863207 39.324608 -42.293224 0.000000 0.000000 0.000000 30.134071 -9.518920 4.204618 -44.131512 -42.013597 33.669219 125.349585 -19.966072 -9.784384 25.205201 8.026181 -17.156800 -0.633368 3.083384 20.290458 0.000000 0.000000 0.000000 28.481699 -3.368160 1.878025 -43.417812 37.874014 -31.208647 124.869232 17.200568 6.480407 16.726420 10.320998 17.427489 6.556203 11.745395 6.932830 0.000000 0.000000 0.000000 25.162769 -7.559765 2.969730 21.418734 2.646701 -8.964209 20.297826 0.786635 -2.446460 -1.636107 -1.976459 3.109837 0.000000 0.000000 0.000000 20.852276 1.405749 -2.723291 6.485404 0.255465 1.134440 7.215247 -4.551744 8.640498 0.000000 0.000000 0.000000 19.829303 0.763456 -2.539603 0.198928 -18.476650 -12.993398 0.842192 -2.978195 0.543676 -54.494142 -34.850361 -54.184563 0.655050 -65.090870 3.299696 0.000000 0.000000 0.000000 18.254259 0.649924 -2.231147 -0.173456 8.761844 3.880825 -2.375549 -6.136474 -0.040008 -56.769414 27.611262 71.773950 -4.034962 59.102433 3.588377 0.000000 0.000000 0.000000 
